<svg id="box_small" data-name="box small" xmlns="http://www.w3.org/2000/svg" width="35" height="35" viewBox="0 0 35 35">
  <path id="패스_2821" data-name="패스 2821" d="M17.5,0A17.5,17.5,0,1,1,0,17.5,17.5,17.5,0,0,1,17.5,0Z" opacity="0.5"/>
  <g id="starbox" transform="translate(8.824 6.403)" opacity="0.8">
    <path id="Icon_weather-stars" data-name="Icon weather-stars" d="M6.444,39.067A2.666,2.666,0,0,0,8.323,38.2,2.738,2.738,0,0,0,9.1,36.258,2.727,2.727,0,0,0,9.861,38.2a2.666,2.666,0,0,0,1.879.867,2.666,2.666,0,0,0-1.879.867A2.727,2.727,0,0,0,9.1,41.876a2.807,2.807,0,0,0-2.654-2.809Z" transform="translate(-4.557 -33.069)" fill="#fff"/>
    <path id="Icon_awesome-box-open" data-name="Icon awesome-box-open" d="M12.01,6.221c-.466,0-1.247.083-1.485-.355L8.311,4.511,6.7,6.163a1.322,1.322,0,0,1-1.145.715,1.16,1.16,0,0,1-.367-.058L1.245,5.866l.012,3.957a.958.958,0,0,0,.668.943l5.967,1.646a1.633,1.633,0,0,0,.856,0l5.973-1.646a.963.963,0,0,0,.668-.943l-.012-4.7-3,1.04A1.16,1.16,0,0,1,12.01,6.221Zm4.563-3.739A18.543,18.543,0,0,0,14,.865L8.311,2.793l2.866,1.718a.436.436,0,0,0,.511.222l4.6-1.549A.516.516,0,0,0,16.573,2.482ZM.947,1.579-.684,3.411a.511.511,0,0,0,.279.7l5.8,1.234A.436.436,0,0,0,5.9,5.123l2.408-2.33L1.406,1.308a.443.443,0,0,0-.458.271Z" transform="translate(0.732 7.725)" fill="#fff"/>
    <path id="Icon_weather-stars-2" data-name="Icon weather-stars" d="M6.444,40.661A4.18,4.18,0,0,0,9.39,39.3,4.292,4.292,0,0,0,10.6,36.258,4.276,4.276,0,0,0,11.8,39.3a4.18,4.18,0,0,0,2.946,1.359A4.18,4.18,0,0,0,11.8,42.02a4.276,4.276,0,0,0-1.2,3.044A4.218,4.218,0,0,0,9.39,42.02,4.18,4.18,0,0,0,6.444,40.661Z" transform="translate(0.739 -36.258)" fill="#fff"/>
  </g>
</svg>
