<svg xmlns="http://www.w3.org/2000/svg" width="20" height="20" viewBox="0 0 20 20">
  <g id="icon_arrowleft_20" transform="translate(-13 -36.555)">
    <rect id="_20t" data-name="20t" width="20" height="20" transform="translate(13 36.556)" fill="none"/>
    <path id="icon_arrowleft" d="M11.493,20.835l-.991.991a1.067,1.067,0,0,1-1.513,0L.311,13.153a1.067,1.067,0,0,1,0-1.513L8.989,2.962a1.067,1.067,0,0,1,1.513,0l.991.991a1.073,1.073,0,0,1-.018,1.531L6.1,10.608H18.925A1.069,1.069,0,0,1,20,11.68v1.428a1.069,1.069,0,0,1-1.071,1.071H6.1L11.475,19.3A1.065,1.065,0,0,1,11.493,20.835Z" transform="translate(13.004 33.908)" fill="#191919"/>
  </g>
</svg>
