<svg xmlns="http://www.w3.org/2000/svg" width="14.135" height="21.087" viewBox="0 0 14.135 21.087">
  <path id="Icon_awesome-microphone" data-name="Icon awesome-microphone" d="M7.067,14.5a3.905,3.905,0,0,0,3.855-3.954V3.954A3.905,3.905,0,0,0,7.067,0,3.905,3.905,0,0,0,3.212,3.954v6.59A3.905,3.905,0,0,0,7.067,14.5Zm6.425-6.59H12.85a.651.651,0,0,0-.642.659v1.977A5.2,5.2,0,0,1,6.554,15.79a5.389,5.389,0,0,1-4.626-5.481V8.567a.651.651,0,0,0-.642-.659H.642A.651.651,0,0,0,0,8.567v1.654A7.425,7.425,0,0,0,6.1,17.7V19.11H3.855a.651.651,0,0,0-.642.659v.659a.651.651,0,0,0,.642.659H10.28a.651.651,0,0,0,.642-.659v-.659a.651.651,0,0,0-.642-.659H8.031V17.719a7.2,7.2,0,0,0,6.1-7.176V8.567A.651.651,0,0,0,13.492,7.908Z" fill="#b2afaf"/>
</svg>
