<svg xmlns="http://www.w3.org/2000/svg" width="50" height="50" viewBox="0 0 50 50">
  <defs>
    <style>
      .cls-1 {
        opacity: 0.5;
      }

      .cls-2 {
        opacity: 0.8;
      }

      .cls-3 {
        fill: #fff;
      }
    </style>
  </defs>
  <g id="star_box" transform="translate(-328 -400)">
    <path id="starbox_35" class="cls-1" d="M25,0A25,25,0,1,1,0,25,25,25,0,0,1,25,0Z" transform="translate(328 400)"/>
    <g id="starbox" class="cls-2" transform="translate(340.606 409.147)">
      <path id="Icon_weather-stars" data-name="Icon weather-stars" class="cls-3" d="M6.444,40.271a3.809,3.809,0,0,0,2.685-1.238,3.911,3.911,0,0,0,1.106-2.774,3.9,3.9,0,0,0,1.09,2.774,3.809,3.809,0,0,0,2.685,1.238,3.809,3.809,0,0,0-2.685,1.239,3.9,3.9,0,0,0-1.09,2.774,3.843,3.843,0,0,0-1.106-2.774A3.809,3.809,0,0,0,6.444,40.271Z" transform="translate(-3.748 -31.703)"/>
      <path id="Icon_awesome-box-open" data-name="Icon awesome-box-open" class="cls-3" d="M17.471,8.517c-.666,0-1.782.119-2.121-.507L12.187,6.074l-2.3,2.36A1.889,1.889,0,0,1,8.248,9.455a1.658,1.658,0,0,1-.524-.083L2.093,8.009l.017,5.653a1.368,1.368,0,0,0,.954,1.347l8.525,2.352a2.332,2.332,0,0,0,1.222,0l8.533-2.352a1.376,1.376,0,0,0,.954-1.347l-.017-6.715L18,8.434A1.658,1.658,0,0,1,17.471,8.517Zm6.518-5.342A26.49,26.49,0,0,0,20.308.865l-8.12,2.754,4.095,2.455a.623.623,0,0,0,.729.317l6.575-2.213A.738.738,0,0,0,23.989,3.174ZM1.667,1.885-.664,4.5a.73.73,0,0,0,.4,1L8.018,7.265a.623.623,0,0,0,.729-.317l3.44-3.328L2.322,1.5a.633.633,0,0,0-.655.387Z" transform="translate(0.732 11.406)"/>
      <path id="Icon_weather-stars-2" data-name="Icon weather-stars" class="cls-3" d="M6.444,42.548a5.971,5.971,0,0,0,4.208-1.942,6.132,6.132,0,0,0,1.734-4.349A6.108,6.108,0,0,0,14.1,40.607,5.972,5.972,0,0,0,18.3,42.548,5.971,5.971,0,0,0,14.1,44.49a6.108,6.108,0,0,0-1.709,4.349,6.025,6.025,0,0,0-1.734-4.349A5.971,5.971,0,0,0,6.444,42.548Z" transform="translate(3.817 -36.258)"/>
    </g>
  </g>
</svg>
