<svg xmlns="http://www.w3.org/2000/svg" xmlns:xlink="http://www.w3.org/1999/xlink" width="42" height="42" viewBox="0 0 42 42">
  <defs>
    <style>
      .cls-1 {
        fill: #fff;
        stroke: #efefef;
        stroke-width: 0.5px;
      }

      .cls-2 {
        fill: #b2afaf;
        stroke: #fff;
      }

      .cls-3 {
        stroke: none;
      }

      .cls-4 {
        fill: none;
      }

      .cls-5 {
        filter: url(#floating_btn_36);
      }
    </style>
    <filter id="floating_btn_36" x="0" y="0" width="42" height="42" filterUnits="userSpaceOnUse">
      <feOffset dy="1" input="SourceAlpha"/>
      <feGaussianBlur stdDeviation="1" result="blur"/>
      <feFlood flood-opacity="0.161"/>
      <feComposite operator="in" in2="blur"/>
      <feComposite in="SourceGraphic"/>
    </filter>
  </defs>
  <g id="그룹_3971" data-name="그룹 3971" transform="translate(-291 -460)">
    <g class="cls-5" transform="matrix(1, 0, 0, 1, 291, 460)">
      <g id="floating_btn_36-2" data-name="floating_btn_36" class="cls-1" transform="translate(3 2)">
        <circle class="cls-3" cx="18" cy="18" r="18"/>
        <circle class="cls-4" cx="18" cy="18" r="17.75"/>
      </g>
    </g>
    <path id="Icon_awesome-arrow-up" data-name="Icon awesome-arrow-up" class="cls-2" d="M1.469,11.444l-.814-.793a.838.838,0,0,1,0-1.211L7.776,2.5a.892.892,0,0,1,1.242,0l7.12,6.939a.838.838,0,0,1,0,1.211l-.814.793a.9.9,0,0,1-1.257-.014l-4.2-4.3V17.389a.866.866,0,0,1-.88.857H7.813a.866.866,0,0,1-.88-.857V7.126l-4.207,4.3a.89.89,0,0,1-1.257.014Z" transform="translate(304.103 470.253)"/>
  </g>
</svg>
