<svg xmlns="http://www.w3.org/2000/svg" width="36" height="36" viewBox="0 0 36 36">
  <defs>
    <style>
      .cls-1 {
        fill: #b2afaf;
      }

      .cls-2 {
        fill: #fff;
      }

      .cls-3 {
        fill: none;
      }
    </style>
  </defs>
  <g id="icon_box_36" transform="translate(1 1)">
    <circle id="타원_334" data-name="타원 334" class="cls-1" cx="18" cy="18" r="18" transform="translate(-1 -1)"/>
    <g id="icon_box_35" transform="translate(7 5)">
      <path id="Icon_weather-stars" data-name="Icon weather-stars" class="cls-2" d="M6.444,39.2a2.792,2.792,0,0,0,1.968-.908,2.867,2.867,0,0,0,.811-2.033,2.856,2.856,0,0,0,.8,2.033,2.792,2.792,0,0,0,1.968.908,2.792,2.792,0,0,0-1.968.908,2.856,2.856,0,0,0-.8,2.033A2.939,2.939,0,0,0,6.444,39.2Z" transform="translate(-2.903 -32.919)"/>
      <path id="Icon_awesome-box-open" data-name="Icon awesome-box-open" class="cls-2" d="M13.759,6.473c-.53,0-1.419.087-1.689-.372L9.553,4.683,7.72,6.413a1.522,1.522,0,0,1-1.3.749A1.424,1.424,0,0,1,6,7.1l-4.483-1,.013,4.144a1.014,1.014,0,0,0,.76.988l6.787,1.724a2.011,2.011,0,0,0,.973,0l6.793-1.724a1.019,1.019,0,0,0,.76-.988l-.013-4.922L14.176,6.413A1.424,1.424,0,0,1,13.759,6.473Zm5.189-3.916A21.449,21.449,0,0,0,16.017.865L9.553,2.884l3.26,1.8a.513.513,0,0,0,.581.233l5.234-1.622a.527.527,0,0,0,.32-.736ZM1.178,1.613-.678,3.531a.522.522,0,0,0,.317.733L6.234,5.556a.513.513,0,0,0,.581-.233l2.739-2.44L1.7,1.329a.511.511,0,0,0-.521.284Z" transform="translate(0.732 9.753)"/>
      <path id="Icon_weather-stars-2" data-name="Icon weather-stars" class="cls-2" d="M6.444,40.869a4.377,4.377,0,0,0,3.085-1.423A4.494,4.494,0,0,0,10.8,36.258a4.477,4.477,0,0,0,1.253,3.188,4.377,4.377,0,0,0,3.085,1.423,4.377,4.377,0,0,0-3.085,1.423A4.477,4.477,0,0,0,10.8,45.479a4.416,4.416,0,0,0-1.271-3.188A4.377,4.377,0,0,0,6.444,40.869Z" transform="translate(2.642 -36.258)"/>
    </g>
    <rect id="사각형_1887" data-name="사각형 1887" class="cls-3" width="24" height="24" transform="translate(5 5)"/>
  </g>
</svg>
