<svg xmlns="http://www.w3.org/2000/svg" width="24" height="22.765" viewBox="0 0 24 22.765">
  <g id="icon_market_main" transform="translate(-2.113 -2.627)" fill="none" stroke-linecap="square" stroke-linejoin="round">
    <path d="M9.805,10.785l.879-6.157H6.113L4.2,9.905a1.944,1.944,0,0,0-.09.586A2.639,2.639,0,0,0,6.97,12.837a2.727,2.727,0,0,0,2.836-2.052Zm4.308,2.052a2.64,2.64,0,0,0,2.857-2.346c0-.048,0-.1-.006-.142L16.4,4.627H11.828l-.567,5.718c0,.048,0,.1,0,.147a2.64,2.64,0,0,0,2.857,2.346Zm5.556,1.227V18.7H8.558v-4.63a4.455,4.455,0,0,1-1.588.291,4.346,4.346,0,0,1-.634-.057v7.446a1.6,1.6,0,0,0,1.553,1.642H20.335a1.606,1.606,0,0,0,1.556-1.642V14.306a4.529,4.529,0,0,1-.634.057A4.4,4.4,0,0,1,19.669,14.064Zm4.356-4.159L22.112,4.627h-4.57l.878,6.148a2.721,2.721,0,0,0,2.837,2.062,2.64,2.64,0,0,0,2.857-2.346A1.979,1.979,0,0,0,24.024,9.905Z" stroke="none"/>
    <path d="M 6.113109588623047 4.627277374267578 L 4.203119277954102 9.905057907104492 C 4.144227981567383 10.09270668029785 4.113128662109375 10.28739738464355 4.113128662109375 10.49147796630859 C 4.113128662109375 11.78629684448242 5.390909194946289 12.83715724945068 6.969789505004883 12.83715724945068 C 8.425348281860352 12.83715724945068 9.628688812255859 11.94110679626465 9.805337905883789 10.78468704223633 L 9.80535888671875 10.78468704223633 L 10.68426895141602 4.627277374267578 L 6.113109588623047 4.627277374267578 M 11.82753944396973 4.627277374267578 L 11.26086807250977 10.34487724304199 C 11.25865936279297 10.39295768737793 11.25642776489258 10.44103813171387 11.25642776489258 10.49147796630859 C 11.25642776489258 11.78629684448242 12.53530883789063 12.83715724945068 14.11308860778809 12.83715724945068 L 14.11312866210938 12.83715724945068 C 15.69090843200684 12.83715724945068 16.96978759765625 11.78629684448242 16.96978759765625 10.49147796630859 C 16.96978759765625 10.44339752197266 16.96644973754883 10.39530754089355 16.96422958374023 10.34956741333008 L 16.3986988067627 4.627277374267578 L 11.82753944396973 4.627277374267578 M 17.54201889038086 4.627277374267578 L 18.4197883605957 10.77529716491699 C 18.59092903137207 11.9364070892334 19.79422760009766 12.83715724945068 21.2564697265625 12.83715724945068 C 22.83423805236816 12.83715724945068 24.11312866210938 11.78629684448242 24.11312866210938 10.49147796630859 C 24.11312866210938 10.28739738464355 24.08200836181641 10.09270668029785 24.02423858642578 9.905057907104492 L 22.11202812194824 4.627277374267578 L 17.54201889038086 4.627277374267578 M 19.6686897277832 14.06393718719482 L 19.6686897277832 18.70135879516602 L 8.55756950378418 18.70135879516602 L 8.55756950378418 14.07097721099854 C 8.070898056030273 14.25628757476807 7.535348892211914 14.36184692382813 6.969789505004883 14.36184692382813 C 6.753118515014648 14.36184692382813 6.54313850402832 14.33486747741699 6.335348129272461 14.30437755584717 L 6.335348129272461 21.75073623657227 C 6.335348129272461 22.65382766723633 7.034238815307617 23.3927173614502 7.888689041137695 23.3927173614502 L 20.33534812927246 23.3927173614502 C 21.19090843200684 23.3927173614502 21.89090919494629 22.65265655517578 21.89090919494629 21.75073623657227 L 21.89090919494629 14.30553722381592 C 21.68200874328613 14.33486747741699 21.47315979003906 14.36301708221436 21.2564697265625 14.36301708221436 C 20.69424819946289 14.36184692382813 20.15646743774414 14.25392723083496 19.6686897277832 14.06393718719482 M 6.113109588623047 2.627277374267578 L 10.68426895141602 2.627277374267578 C 10.87966156005859 2.627277374267578 11.07183456420898 2.655858993530273 11.25527954101563 2.710515975952148 C 11.43697929382324 2.656295776367188 11.62910652160645 2.627277374267578 11.82753944396973 2.627277374267578 L 16.3986988067627 2.627277374267578 C 16.59710693359375 2.627277374267578 16.78930282592773 2.656314849853516 16.97098159790039 2.71052360534668 C 17.1544303894043 2.655864715576172 17.34662246704102 2.627277374267578 17.54201889038086 2.627277374267578 L 22.11202812194824 2.627277374267578 C 22.95389938354492 2.627277374267578 23.70563888549805 3.15446662902832 23.99240875244141 3.945987701416016 L 25.90461921691895 9.22376823425293 C 25.91573905944824 9.254447937011719 25.92610931396484 9.285396575927734 25.93570899963379 9.316587448120117 C 26.05343818664551 9.698997497558594 26.11312866210938 10.09428787231445 26.11312866210938 10.49147796630859 C 26.11312866210938 11.7095775604248 25.54186820983887 12.87736701965332 24.54582786560059 13.69542694091797 C 24.33911323547363 13.86520004272461 24.11791610717773 14.01740455627441 23.88494110107422 14.15108489990234 C 23.88890075683594 14.20226192474365 23.89090919494629 14.25380611419678 23.89090919494629 14.30553722381592 L 23.89090919494629 21.75073623657227 C 23.89090919494629 23.75892639160156 22.29588890075684 25.3927173614502 20.33534812927246 25.3927173614502 L 7.888689041137695 25.3927173614502 C 5.92936897277832 25.3927173614502 4.335348129272461 23.75892639160156 4.335348129272461 21.75073623657227 L 4.335348129272461 14.30437755584717 C 4.335348129272461 14.25309085845947 4.337318420410156 14.2020320892334 4.341209411621094 14.151291847229 C 4.108022689819336 14.0175142288208 3.886663436889648 13.86519050598145 3.6798095703125 13.69525718688965 C 2.684158325195313 12.87730693817139 2.113128662109375 11.7095775604248 2.113128662109375 10.49147796630859 C 2.113128662109375 10.08927726745605 2.174278259277344 9.690486907958984 2.294878005981445 9.306198120117188 C 2.303487777709961 9.278757095336914 2.312698364257813 9.251506805419922 2.322479248046875 9.224468231201172 L 4.23246955871582 3.946687698364258 C 4.519048690795898 3.154808044433594 5.270969390869141 2.627277374267578 6.113109588623047 2.627277374267578 Z M 14.11312866210938 14.83715724945068 C 12.88838863372803 14.83715724945068 11.72019958496094 14.4316873550415 10.82373809814453 13.69542694091797 C 10.72555541992188 13.61479091644287 10.63150405883789 13.53075790405273 10.54171562194824 13.44361114501953 C 10.52004623413086 13.46456813812256 10.49824714660645 13.48523712158203 10.4760856628418 13.50583648681641 C 10.52951431274414 13.68716144561768 10.55756950378418 13.87723636627197 10.55756950378418 14.07097721099854 L 10.55756950378418 16.70135879516602 L 17.6686897277832 16.70135879516602 L 17.6686897277832 14.06393718719482 C 17.6686897277832 13.87238693237305 17.69610786437988 13.6844482421875 17.74835586547852 13.50500202178955 C 17.7267017364502 13.48485279083252 17.70525932312012 13.46450996398926 17.68407821655273 13.44401931762695 C 17.59444236755371 13.53099250793457 17.50048828125 13.61493015289307 17.40248870849609 13.6954174041748 C 16.50603866577148 14.43167781829834 15.33785820007324 14.83715724945068 14.11312866210938 14.83715724945068 Z" stroke="none" fill="#646464"/>
  </g>
</svg>
