<svg id="icon_share_25" xmlns="http://www.w3.org/2000/svg" width="25" height="25" viewBox="0 0 25 25">
  <defs>
    <style>
      .cls-1 {
        fill: #fff;
      }

      .cls-2 {
        fill: #b4b4b4;
      }
    </style>
  </defs>
  <rect id="사각형_1883" data-name="사각형 1883" class="cls-1" width="25" height="25"/>
  <path id="Icon_awesome-share-alt" data-name="Icon awesome-share-alt" class="cls-2" d="M16.284,14.1a4.562,4.562,0,0,0-2.766.921L8.777,12.2a4.056,4.056,0,0,0,0-1.836l4.741-2.822a4.562,4.562,0,0,0,2.766.921,4.339,4.339,0,0,0,4.441-4.23A4.339,4.339,0,0,0,16.284,0a4.339,4.339,0,0,0-4.441,4.23,4.049,4.049,0,0,0,.105.918L7.207,7.97a4.562,4.562,0,0,0-2.766-.921A4.339,4.339,0,0,0,0,11.279a4.339,4.339,0,0,0,4.441,4.23,4.562,4.562,0,0,0,2.766-.921l4.741,2.822a4.049,4.049,0,0,0-.105.918,4.339,4.339,0,0,0,4.441,4.23,4.339,4.339,0,0,0,4.441-4.23A4.339,4.339,0,0,0,16.284,14.1Z" transform="translate(2 1)"/>
</svg>
