<svg id="icon_reply_25" xmlns="http://www.w3.org/2000/svg" width="25" height="25" viewBox="0 0 25 25">
  <defs>
    <style>
      .cls-1 {
        fill: none;
      }

      .cls-2 {
        fill: #b2afaf;
      }
    </style>
  </defs>
  <rect id="사각형_1884" data-name="사각형 1884" class="cls-1" width="25" height="25"/>
  <path id="chat" class="cls-2" d="M11.842,1.5c6.53,0,11.842,4.781,11.842,10.658A9.852,9.852,0,0,1,21.8,17.923c.233,2.58.859,4.5,1.766,5.4a.395.395,0,0,1-.279.674.37.37,0,0,1-.055,0,21.088,21.088,0,0,1-6.56-2.107,12.849,12.849,0,0,1-4.833.927C5.312,22.816,0,18.035,0,12.158S5.312,1.5,11.842,1.5Zm5.526,12.237a1.579,1.579,0,1,0-1.579-1.579A1.581,1.581,0,0,0,17.368,13.737Zm-5.526,0a1.579,1.579,0,1,0-1.579-1.579A1.581,1.581,0,0,0,11.842,13.737Zm-5.526,0a1.579,1.579,0,1,0-1.579-1.579A1.581,1.581,0,0,0,6.316,13.737Z" transform="translate(1 -0.5)"/>
</svg>
