<svg id="icon_box_30" xmlns="http://www.w3.org/2000/svg" width="30" height="30" viewBox="0 0 30 30">
  <defs>
    <style>
      .cls-1 {
        fill: #b2afaf;
      }

      .cls-2 {
        fill: #fff;
      }

      .cls-3 {
        fill: none;
      }
    </style>
  </defs>
  <circle id="타원_334" data-name="타원 334" class="cls-1" cx="15" cy="15" r="15"/>
  <g id="icon_box_35" transform="translate(7 5)">
    <path id="Icon_weather-stars" data-name="Icon weather-stars" class="cls-2" d="M6.444,38.643a2.264,2.264,0,0,0,1.6-.736A2.324,2.324,0,0,0,8.7,36.258a2.316,2.316,0,0,0,.648,1.649,2.264,2.264,0,0,0,1.6.736,2.264,2.264,0,0,0-1.6.736A2.316,2.316,0,0,0,8.7,41.027a2.383,2.383,0,0,0-2.253-2.385Z" transform="translate(-3.573 -33.551)"/>
    <path id="Icon_awesome-box-open" data-name="Icon awesome-box-open" class="cls-2" d="M11.017,5.412c-.43,0-1.15.07-1.369-.3L7.607,3.961l-1.486,1.4a1.234,1.234,0,0,1-1.056.607,1.155,1.155,0,0,1-.339-.049l-3.634-.81L1.1,8.47a.822.822,0,0,0,.616.8l5.5,1.4a1.631,1.631,0,0,0,.789,0l5.508-1.4a.826.826,0,0,0,.616-.8L14.123,4.48l-2.767.883A1.155,1.155,0,0,1,11.017,5.412Zm4.207-3.175A17.392,17.392,0,0,0,12.848.865L7.607,2.5,10.25,3.961a.416.416,0,0,0,.471.189l4.244-1.315a.427.427,0,0,0,.26-.6ZM.817,1.471l-1.5,1.555a.423.423,0,0,0,.257.594L4.916,4.669a.416.416,0,0,0,.471-.189L7.607,2.5,1.239,1.241a.415.415,0,0,0-.422.23Z" transform="translate(0.732 7.744)"/>
    <path id="Icon_weather-stars-2" data-name="Icon weather-stars" class="cls-2" d="M6.444,40a3.549,3.549,0,0,0,2.5-1.154,3.644,3.644,0,0,0,1.031-2.585,3.63,3.63,0,0,0,1.016,2.585A3.549,3.549,0,0,0,13.492,40a3.549,3.549,0,0,0-2.5,1.154,3.63,3.63,0,0,0-1.016,2.585A3.581,3.581,0,0,0,8.945,41.15,3.549,3.549,0,0,0,6.444,40Z" transform="translate(0.923 -36.258)"/>
  </g>
  <rect id="사각형_1887" data-name="사각형 1887" class="cls-3" width="20" height="20" transform="translate(5 5)"/>
</svg>
