<svg id="icon_header_box" xmlns="http://www.w3.org/2000/svg" width="30" height="30" viewBox="0 0 30 30">
  <g id="icon_box_g" transform="translate(1)">
    <path id="Icon_weather-stars" data-name="Icon weather-stars" d="M6.444,40.41a3.941,3.941,0,0,0,2.778-1.281,4.047,4.047,0,0,0,1.145-2.871,4.032,4.032,0,0,0,1.128,2.871,3.941,3.941,0,0,0,2.778,1.281,3.941,3.941,0,0,0-2.778,1.281,4.032,4.032,0,0,0-1.128,2.871,3.977,3.977,0,0,0-1.145-2.871A3.941,3.941,0,0,0,6.444,40.41Z" transform="translate(-2.518 -31.545)" fill="#60a070"/>
    <path id="Icon_awesome-box-open" data-name="Icon awesome-box-open" d="M19.725,8.782c-.749,0-2,.123-2.384-.525l-3.554-2L11.2,8.7A2.149,2.149,0,0,1,9.36,9.754a2.01,2.01,0,0,1-.589-.085L2.443,8.257l.019,5.849A1.431,1.431,0,0,0,3.534,15.5l9.58,2.433a2.839,2.839,0,0,0,1.374,0L24.077,15.5a1.439,1.439,0,0,0,1.072-1.394l-.019-6.948L20.314,8.7A2.01,2.01,0,0,1,19.725,8.782ZM27.05,3.255A30.28,30.28,0,0,0,22.913.865l-9.126,2.85,4.6,2.54a.724.724,0,0,0,.82.328L26.6,4.294a.744.744,0,0,0,.452-1.039ZM1.964,1.921-.655,4.628A.736.736,0,0,0-.208,5.663L9.1,7.487a.724.724,0,0,0,.82-.328l3.866-3.444L2.7,1.52A.722.722,0,0,0,1.964,1.921Z" transform="translate(0.732 11.982)" fill="#60a070"/>
    <path id="Icon_weather-stars-2" data-name="Icon weather-stars" d="M6.444,42.767A6.179,6.179,0,0,0,10.8,40.758a6.344,6.344,0,0,0,1.795-4.5,6.32,6.32,0,0,0,1.768,4.5,6.179,6.179,0,0,0,4.355,2.009,6.179,6.179,0,0,0-4.355,2.009,6.32,6.32,0,0,0-1.768,4.5,6.234,6.234,0,0,0-1.795-4.5A6.179,6.179,0,0,0,6.444,42.767Z" transform="translate(6.383 -36.258)" fill="#60a070"/>
  </g>
  <g id="_30t" data-name="30t" transform="translate(0 0)">
    <rect id="_30x30_t" data-name="30x30_t" width="30" height="30" fill="none"/>
  </g>
</svg>
