<svg xmlns="http://www.w3.org/2000/svg" width="24" height="24" viewBox="0 0 24 24">
  <g id="icon_home_main" transform="translate(-0.571 -0.861)" fill="none" stroke-linecap="round" stroke-linejoin="round">
    <path d="M22.571,14.906l-10-8.556-10,8.556V11.417l10-8.556,10,8.556Zm-2.5-.311v8.267h-5V17.35h-5v5.511h-5V14.595l7.5-6.2Z" stroke="none"/>
    <path d="M 20.07070159912109 22.86138534545898 L 20.07070159912109 14.59459400177002 L 12.57070064544678 8.39449405670166 L 5.070700645446777 14.59459400177002 L 5.070700645446777 22.86138534545898 L 10.07070064544678 22.86138534545898 L 10.07070064544678 17.35019493103027 L 15.07070064544678 17.35019493103027 L 15.07070064544678 22.86138534545898 L 20.07070159912109 22.86138534545898 M 2.570700645446777 14.90558433532715 L 12.57070064544678 6.349714279174805 L 22.57070159912109 14.90554428100586 L 22.57070159912109 11.41725444793701 L 12.57070064544678 2.861384391784668 L 2.570700645446777 11.41721439361572 L 2.570700645446777 14.90558433532715 M 20.07070159912109 24.86138534545898 L 15.07070064544678 24.86138534545898 C 13.96613025665283 24.86138534545898 13.07070064544678 23.9659538269043 13.07070064544678 22.86138534545898 L 13.07070064544678 19.35019493103027 L 12.07070064544678 19.35019493103027 L 12.07070064544678 22.86138534545898 C 12.07070064544678 23.9659538269043 11.17527103424072 24.86138534545898 10.07070064544678 24.86138534545898 L 5.070700645446777 24.86138534545898 C 3.96613073348999 24.86138534545898 3.070700645446777 23.9659538269043 3.070700645446777 22.86138534545898 L 3.070700645446777 16.84208679199219 C 2.907327890396118 16.88425064086914 2.739177703857422 16.90560913085938 2.570340156555176 16.90560913085938 C 2.286880254745483 16.90560913085938 2.00166392326355 16.84540748596191 1.73417067527771 16.72223472595215 C 1.025010704994202 16.39568519592285 0.5707006454467773 15.68631458282471 0.5707006454467773 14.90558433532715 L 0.5707006454467773 11.41721439361572 C 0.5707006454467773 10.83273410797119 0.8263706564903259 10.27750396728516 1.270480632781982 9.897534370422363 L 11.27048110961914 1.341704368591309 C 11.64474582672119 1.021489381790161 12.10772609710693 0.8613818883895874 12.57070446014404 0.8613818883895874 C 13.03368282318115 0.8613818883895874 13.49666023254395 1.021489381790161 13.87092018127441 1.341704368591309 L 23.87092018127441 9.897574424743652 C 24.31503105163574 10.27754402160645 24.57070159912109 10.83277416229248 24.57070159912109 11.41725444793701 L 24.57070159912109 14.90554428100586 C 24.57070159912109 15.68627452850342 24.11639022827148 16.39564514160156 23.40723037719727 16.72219467163086 C 23.13978004455566 16.8453483581543 22.85447692871094 16.90556335449219 22.57106399536133 16.90556907653809 C 22.4022274017334 16.90557479858398 22.23407554626465 16.88421058654785 22.07070159912109 16.84205627441406 L 22.07070159912109 22.86138534545898 C 22.07070159912109 23.9659538269043 21.17527008056641 24.86138534545898 20.07070159912109 24.86138534545898 Z" stroke="none" fill="#43b3ae"/>
  </g>
</svg>
