<svg xmlns="http://www.w3.org/2000/svg" width="22" height="22" viewBox="0 0 22 22">
  <g id="icon_write_main" transform="translate(-176.587 -90)">
    <path id="패스_2732" data-name="패스 2732" d="M109.493.741l-.027-.024a2.761,2.761,0,0,0-3.89.175L95.739,11.617a.944.944,0,0,0-.2.339l-1.157,3.453a1.309,1.309,0,0,0,.18,1.181,1.324,1.324,0,0,0,1.069.548h0a1.318,1.318,0,0,0,.53-.111l3.35-1.459a.949.949,0,0,0,.321-.229L109.67,4.614A2.736,2.736,0,0,0,109.493.741ZM96.6,14.771l.679-2.026.057-.062,1.287,1.17-.057.062ZM108.267,3.339,99.9,12.456l-1.287-1.17,8.364-9.118a.856.856,0,0,1,1.206-.054l.027.024A.848.848,0,0,1,108.267,3.339Z" transform="translate(88.198 90)" fill="#646464"/>
    <path id="패스_2733" data-name="패스 2733" d="M19.953,38.958A.948.948,0,0,0,19,39.9v8.03a2.413,2.413,0,0,1-2.416,2.405H5.073a2.413,2.413,0,0,1-2.416-2.405V36.563a2.413,2.413,0,0,1,2.416-2.405h8.334a.946.946,0,1,0,0-1.892H5.073a4.311,4.311,0,0,0-4.316,4.3V47.934a4.312,4.312,0,0,0,4.316,4.3H16.587a4.312,4.312,0,0,0,4.316-4.3V39.9A.948.948,0,0,0,19.953,38.958Z" transform="translate(175.83 59.769)" fill="#646464"/>
  </g>
</svg>
