<svg xmlns="http://www.w3.org/2000/svg" width="128" height="21.197" viewBox="0 0 128 21.197"><defs><style>.a{fill:#60a070;}</style></defs><path class="a" d="M11.288.736,8.6,6.217,2.571,7.1a1.327,1.327,0,0,0-.73,2.26L6.2,13.622,5.169,19.644a1.32,1.32,0,0,0,1.913,1.395L12.471,18.2l5.389,2.844a1.321,1.321,0,0,0,1.913-1.395l-1.031-6.022L23.1,9.358a1.327,1.327,0,0,0-.73-2.26l-6.024-.882L13.654.736a1.318,1.318,0,0,0-2.367,0Z" transform="translate(77.983 0.001)"/><path class="a" d="M20.968,7.1l-6.035-.882-2.7-5.48a1.322,1.322,0,0,0-2.371,0l-2.7,5.479L1.132,7.1A1.326,1.326,0,0,0,.4,9.357l4.366,4.263L3.733,19.642a1.326,1.326,0,0,0,1.3,1.55,1.3,1.3,0,0,0,.613-.155l5.4-2.843,5.4,2.844a1.306,1.306,0,0,0,.611.154,1.325,1.325,0,0,0,1.305-1.548l-1.032-6.022L21.7,9.359a1.326,1.326,0,0,0-.731-2.26Zm-5.02,5.1-.747.729.176,1.03.8,4.7-4.211-2.218-.923-.486V2.82l2.1,4.275.461.937,1.031.151,4.71.688L15.949,12.2Z" transform="translate(105.9 0.003)"/><path class="a" d="M11.288.736,8.6,6.217,2.571,7.1a1.327,1.327,0,0,0-.73,2.26L6.2,13.622,5.169,19.644a1.32,1.32,0,0,0,1.913,1.395L12.471,18.2l5.389,2.844a1.321,1.321,0,0,0,1.913-1.395l-1.031-6.022L23.1,9.358a1.327,1.327,0,0,0-.73-2.26l-6.024-.882L13.654.736a1.318,1.318,0,0,0-2.367,0Z" transform="translate(51.508 0.003)"/><path class="a" d="M11.288.736,8.6,6.217,2.571,7.1a1.327,1.327,0,0,0-.73,2.26L6.2,13.622,5.169,19.644a1.32,1.32,0,0,0,1.913,1.395L12.471,18.2l5.389,2.844a1.321,1.321,0,0,0,1.913-1.395l-1.031-6.022L23.1,9.358a1.327,1.327,0,0,0-.73-2.26l-6.024-.882L13.654.736a1.318,1.318,0,0,0-2.367,0Z" transform="translate(25.034 0.001)"/><path class="a" d="M11.288.736,8.6,6.217,2.571,7.1a1.327,1.327,0,0,0-.73,2.26L6.2,13.622,5.169,19.644a1.32,1.32,0,0,0,1.913,1.395L12.471,18.2l5.389,2.844a1.321,1.321,0,0,0,1.913-1.395l-1.031-6.022L23.1,9.358a1.327,1.327,0,0,0-.73-2.26l-6.024-.882L13.654.736a1.318,1.318,0,0,0-2.367,0Z" transform="translate(-1.441 0.003)"/></svg>