<svg xmlns="http://www.w3.org/2000/svg" width="35" height="35" viewBox="0 0 35 35">
  <g id="tag" transform="translate(-937 -71.5)">
    <circle id="tag_35" cx="17.5" cy="17.5" r="17.5" transform="translate(937 71.5)" opacity="0.53"/>
    <path id="Icon_awesome-tags" data-name="Icon awesome-tags" d="M4.362,6.938,10.868.432A1.474,1.474,0,0,1,11.91,0h6.268a1.474,1.474,0,0,1,1.474,1.474V7.741a1.474,1.474,0,0,1-.432,1.042l-6.506,6.506a1.474,1.474,0,0,1-2.084,0L4.362,9.022a1.474,1.474,0,0,1,0-2.084Zm11.85-2.025a1.474,1.474,0,1,0-1.474-1.474A1.474,1.474,0,0,0,16.212,4.913ZM.432,9.022,6.7,15.289a1.474,1.474,0,0,0,2.084,0l.011-.011L3.45,9.934a2.764,2.764,0,0,1,0-3.908L9.476,0H7.98A1.474,1.474,0,0,0,6.938.432L.432,6.938a1.474,1.474,0,0,0,0,2.084Z" transform="translate(943.907 82.406)" fill="#fff" opacity="0.82"/>
  </g>
</svg>
