<svg xmlns="http://www.w3.org/2000/svg" width="26" height="30" viewBox="0 0 26 30">
  <g id="그룹_4092" data-name="그룹 4092" transform="translate(-979 -465)">
    <path id="Icon_weather-stars" data-name="Icon weather-stars" d="M6.444,40.133a3.679,3.679,0,0,0,2.593-1.2A3.777,3.777,0,0,0,10.1,36.258a3.763,3.763,0,0,0,1.053,2.679,3.679,3.679,0,0,0,2.593,1.2,3.679,3.679,0,0,0-2.593,1.2A3.763,3.763,0,0,0,10.1,44.008a3.712,3.712,0,0,0-1.068-2.679A3.679,3.679,0,0,0,6.444,40.133Z" transform="translate(977.221 433.141)" fill="#b2afaf"/>
    <path id="Icon_awesome-box-open" data-name="Icon awesome-box-open" d="M18.361,8.254c-.7,0-1.869.115-2.225-.49L12.819,5.9,10.4,8.175a2.006,2.006,0,0,1-1.716.986,1.876,1.876,0,0,1-.55-.08L2.231,7.764l.017,5.459a1.335,1.335,0,0,0,1,1.3L12.191,16.8a2.65,2.65,0,0,0,1.282,0l8.95-2.271a1.343,1.343,0,0,0,1-1.3l-.017-6.485-4.5,1.435A1.876,1.876,0,0,1,18.361,8.254ZM25.2,3.1A28.261,28.261,0,0,0,21.336.865l-8.517,2.66,4.3,2.37a.675.675,0,0,0,.765.306l6.9-2.137A.694.694,0,0,0,25.2,3.1ZM1.785,1.85-.66,4.377a.687.687,0,0,0,.418.965l8.688,1.7a.675.675,0,0,0,.765-.306l3.608-3.214L2.471,1.477a.674.674,0,0,0-.687.374Z" transform="translate(979.732 478.125)" fill="#b2afaf"/>
    <path id="Icon_weather-stars-2" data-name="Icon weather-stars" d="M6.444,42.333a5.767,5.767,0,0,0,4.064-1.875,5.921,5.921,0,0,0,1.675-4.2,5.9,5.9,0,0,0,1.65,4.2A5.767,5.767,0,0,0,17.9,42.333a5.767,5.767,0,0,0-4.064,1.875,5.9,5.9,0,0,0-1.65,4.2,5.819,5.819,0,0,0-1.675-4.2A5.767,5.767,0,0,0,6.444,42.333Z" transform="translate(984.527 428.742)" fill="#b2afaf"/>
  </g>
</svg>
